<svg xmlns="http://www.w3.org/2000/svg" viewBox="0 0 963.3 272.4" width="963" height="272" role="img" aria-label="CareerOS">
<g transform="translate(636.72,48.98) scale(1.7065)" fill="none" stroke-linecap="round">
  <path d="M62.7 18.5 A34 34 0 1 1 37.3 18.5" stroke="#F4F5F7" stroke-width="9"/>
  <path d="M50 49 L50 13" stroke="#F4F5F7" stroke-width="9"/></g><g fill="#F4F5F7" transform="translate(46.0,200.0) scale(0.18,-0.18)"><path d="M417 -19.5Q317.75 -19.5 246.875 15.125Q176 49.75 130.75 106.125Q85.5 162.5 64.0 228.375Q42.5 294.25 42.5 356V378Q42.5 446.25 64.5 512.625Q86.5 579 132.125 633.0Q177.75 687 247.5 719.25Q317.25 751.5 411.75 751.5Q511.25 751.5 586.875 714.875Q662.5 678.25 708.0 612.375Q753.5 546.5 761.75 459H597.25Q590 503 564.75 534.125Q539.5 565.25 500.375 581.875Q461.25 598.5 411.75 598.5Q363.25 598.5 325.125 581.625Q287 564.75 261.25 534.0Q235.5 503.25 222.0 460.75Q208.5 418.25 208.5 366Q208.5 314.5 222.0 272.0Q235.5 229.5 262.25 198.25Q289 167 327.75 150.25Q366.5 133.5 417 133.5Q493 133.5 545.375 170.75Q597.75 208 608.75 273H773.25Q764 192.75 719.375 126.25Q674.75 59.75 598.375 20.125Q522 -19.5 417 -19.5Z" transform="translate(0.00,0)"/><path d="M403.75 0V161.5H377.25V337.5Q377.25 379.75 357.0 400.625Q336.75 421.5 293 421.5Q271 421.5 235.0 420.5Q199 419.5 160.75 417.75Q122.5 416 91.5 414V549Q115 551 145.875 552.875Q176.75 554.75 209.875 555.625Q243 556.5 271.5 556.5Q355.75 556.5 413.375 532.875Q471 509.25 500.875 460.75Q530.75 412.25 530.75 335.75V0ZM228.75 -14Q170.25 -14 125.625 6.875Q81 27.75 56.0 67.125Q31 106.5 31 161.5Q31 222.25 62.125 260.625Q93.25 299 149.0 317.375Q204.75 335.75 278.25 335.75H394.75V247.25H277.25Q235 247.25 212.25 226.375Q189.5 205.5 189.5 171.25Q189.5 137.75 212.25 117.125Q235 96.5 277.25 96.5Q303.75 96.5 325.375 106.0Q347 115.5 361.125 138.625Q375.25 161.75 377.25 202.5L415.25 163Q410.25 106 387.75 66.75Q365.25 27.5 325.75 6.75Q286.25 -14 228.75 -14Z" transform="translate(765.00,0)"/><path d="M72.5 0V547.5H199.5V312.5H197Q197 428.75 246.25 491.875Q295.5 555 389.5 555H410.5V416.5H370.5Q304.75 416.5 268.875 381.125Q233 345.75 233 279.25V0Z" transform="translate(1324.00,0)"/><path d="M323.5 -19.5Q253.5 -19.5 200.25 4.5Q147 28.5 111.25 69.125Q75.5 109.75 57.0 160.25Q38.5 210.75 38.5 264V283.5Q38.5 338.5 57.0 389.375Q75.5 440.25 110.875 480.125Q146.25 520 198.375 543.5Q250.5 567 317.5 567Q406 567 466.625 527.625Q527.25 488.25 558.875 424.375Q590.5 360.5 590.5 286V231.75H106V323.25H494.25L441.5 280.5Q441.5 330 427.625 364.75Q413.75 399.5 386.375 418.0Q359 436.5 317.5 436.5Q276.25 436.5 247.0 417.625Q217.75 398.75 202.625 362.375Q187.5 326 187.5 273Q187.5 224.25 201.875 187.75Q216.25 151.25 246.25 131.125Q276.25 111 323.5 111Q367.75 111 396.0 127.75Q424.25 144.5 433.75 170.25H580.75Q569 114.5 534.125 71.5Q499.25 28.5 445.875 4.5Q392.5 -19.5 323.5 -19.5Z" transform="translate(1710.00,0)"/><path d="M323.5 -19.5Q253.5 -19.5 200.25 4.5Q147 28.5 111.25 69.125Q75.5 109.75 57.0 160.25Q38.5 210.75 38.5 264V283.5Q38.5 338.5 57.0 389.375Q75.5 440.25 110.875 480.125Q146.25 520 198.375 543.5Q250.5 567 317.5 567Q406 567 466.625 527.625Q527.25 488.25 558.875 424.375Q590.5 360.5 590.5 286V231.75H106V323.25H494.25L441.5 280.5Q441.5 330 427.625 364.75Q413.75 399.5 386.375 418.0Q359 436.5 317.5 436.5Q276.25 436.5 247.0 417.625Q217.75 398.75 202.625 362.375Q187.5 326 187.5 273Q187.5 224.25 201.875 187.75Q216.25 151.25 246.25 131.125Q276.25 111 323.5 111Q367.75 111 396.0 127.75Q424.25 144.5 433.75 170.25H580.75Q569 114.5 534.125 71.5Q499.25 28.5 445.875 4.5Q392.5 -19.5 323.5 -19.5Z" transform="translate(2299.00,0)"/><path d="M72.5 0V547.5H199.5V312.5H197Q197 428.75 246.25 491.875Q295.5 555 389.5 555H410.5V416.5H370.5Q304.75 416.5 268.875 381.125Q233 345.75 233 279.25V0Z" transform="translate(2888.00,0)"/></g><g fill="#F4F5F7" transform="translate(803.512,200.0) scale(0.18,-0.18)"><path d="M336.25 -19.5Q237 -19.5 168.875 12.0Q100.75 43.5 65.625 98.375Q30.5 153.25 30.5 224H190Q190 196.25 205.25 171.875Q220.5 147.5 252.625 133.0Q284.75 118.5 336.25 118.5Q382 118.5 413.125 130.875Q444.25 143.25 460.125 164.625Q476 186 476 214Q476 249.25 446.0 269.75Q416 290.25 349.25 295.75L293.75 300.5Q184.75 310 120.0 368.75Q55.25 427.5 55.25 524.5Q55.25 595.25 88.5 646.0Q121.75 696.75 182.0 724.125Q242.25 751.5 323.75 751.5Q410.25 751.5 471.625 722.0Q533 692.5 565.875 639.0Q598.75 585.5 598.75 514H439.25Q439.25 540.75 426.125 563.5Q413 586.25 387.375 599.875Q361.75 613.5 323.75 613.5Q287.75 613.5 263.5 601.625Q239.25 589.75 227.0 569.375Q214.75 549 214.75 524.5Q214.75 493.5 236.75 470.75Q258.75 448 309.25 443.75L364.75 439Q445 432.25 505.875 404.5Q566.75 376.75 601.125 329.375Q635.5 282 635.5 214Q635.5 144 599.125 91.25Q562.75 38.5 495.875 9.5Q429 -19.5 336.25 -19.5Z" transform="translate(0.00,0)"/></g>
</svg>